<svg xmlns="http://www.w3.org/2000/svg" xmlns:xlink="http://www.w3.org/1999/xlink" width="414.4" height="135.3" viewBox="0 0 414.4 135.3"><defs><clipPath id="a" transform="translate(0.01)"><path d="M73.56,99a31.55,31.55,0,0,0,11.76-4.88,3.09,3.09,0,0,1,3.94.38l21.25,21.25a3.13,3.13,0,0,1-.24,4.62,67.51,67.51,0,0,1-35.8,14.83,3.11,3.11,0,0,1-3.43-3.1v-30A3.08,3.08,0,0,1,73.56,99" fill="none" clip-rule="evenodd"/></clipPath><clipPath id="b" transform="translate(0.01)"><path d="M93.87,85.58a31.65,31.65,0,0,0,4.87-11.75,3.08,3.08,0,0,1,3.06-2.52h30a3.11,3.11,0,0,1,3.1,3.43,67.51,67.51,0,0,1-14.83,35.8,3.12,3.12,0,0,1-4.62.23L94.25,89.53a3.08,3.08,0,0,1-.38-4" fill="none" clip-rule="evenodd"/></clipPath><clipPath id="c" transform="translate(0.01)"><path d="M40.78,89.53,19.54,110.77a3.12,3.12,0,0,1-4.62-.23A67.51,67.51,0,0,1,.09,74.74a3,3,0,0,1,.79-2.41,3,3,0,0,1,2.31-1h30a3.09,3.09,0,0,1,3.06,2.52,31.65,31.65,0,0,0,4.87,11.75,3.08,3.08,0,0,1-.38,4" fill="none" clip-rule="evenodd"/></clipPath><clipPath id="d" transform="translate(0.01)"><path d="M49.71,94.13A31.57,31.57,0,0,0,61.46,99,3.08,3.08,0,0,1,64,102.07v30a3.12,3.12,0,0,1-3.43,3.1,67.45,67.45,0,0,1-35.8-14.83,3.12,3.12,0,0,1-.24-4.63L45.76,94.51a3.11,3.11,0,0,1,4-.38" fill="none" clip-rule="evenodd"/></clipPath><clipPath id="e" transform="translate(0.01)"><path d="M33.23,64.26h-30a3,3,0,0,1-2.31-1,3,3,0,0,1-.79-2.4A67.42,67.42,0,0,1,3.66,45,63.05,63.05,0,0,1,120,45,64,64,0,0,0,59.17.83c-.86,0-1.72,0-2.58.05A69.06,69.06,0,0,1,67.51,0a67.79,67.79,0,0,1,67.43,60.83,3,3,0,0,1-.79,2.4,3,3,0,0,1-2.31,1h-30a3.09,3.09,0,0,1-3.06-2.53,31.66,31.66,0,0,0-.86-3.42c-9.3-37.5-58.39-38.17-68.78,0a33.73,33.73,0,0,1,45-21.63,31.42,31.42,0,0,0-6.61-.7A31.81,31.81,0,0,0,36.29,61.73a3.09,3.09,0,0,1-3.06,2.53" fill="#8ebb2d" clip-rule="evenodd"/></clipPath></defs><title>main-logo-dark</title><path d="M210.54,78.93q0,8.71-6.46,13.32t-19,4.61q-22.53,0-26.23-16.29l12-2a10.64,10.64,0,0,0,4.76,6.84q3.54,2.13,9.81,2.13c4.35,0,7.6-.66,9.77-2a6.51,6.51,0,0,0,3.24-5.94A6,6,0,0,0,197,75.47a11.09,11.09,0,0,0-4.2-2.73,30,30,0,0,0-4-1.2q-2.61-.66-6.49-1.45c-3-.71-5.3-1.3-7-1.79a29.42,29.42,0,0,1-4-1.44,33,33,0,0,1-3-1.53,13.61,13.61,0,0,1-4.92-5,16,16,0,0,1-1.77-7.88q0-8,6-12.31t17.58-4.28q11,0,16.57,3.46T209,50.68l-12,1.64a9.24,9.24,0,0,0-3.77-5.77c-1.89-1.29-4.61-1.94-8.14-1.94-3.76,0-6.59.59-8.47,1.77a5.86,5.86,0,0,0-2.82,5.31,5.83,5.83,0,0,0,1.2,3.79A9.48,9.48,0,0,0,178.5,58a57.17,57.17,0,0,0,9.56,2.57c2.83.62,5.28,1.2,7.32,1.75a39.81,39.81,0,0,1,4.93,1.58,26.12,26.12,0,0,1,3.31,1.68,14.38,14.38,0,0,1,2.5,1.9,13.88,13.88,0,0,1,3.29,4.9A17.69,17.69,0,0,1,210.54,78.93Z" transform="translate(0.01)" fill="#1b2841"/><path d="M262.35,73.2q0,11.07-6.14,17.37t-17,6.29q-10.66,0-16.72-6.31T216.42,73.2q0-11,6.06-17.28t17-6.3q11.16,0,17,6.09T262.35,73.2ZM250,73.2q0-8.13-2.65-11.79a8.93,8.93,0,0,0-7.7-3.66c-3.6,0-6.29,1.28-8.09,3.85s-2.69,6.44-2.69,11.6.87,9,2.63,11.6a8.56,8.56,0,0,0,7.6,4q5.48,0,8.19-3.9T250,73.2Z" transform="translate(0.01)" fill="#1b2841"/><path d="M282.71,33.54V96H270.88V33.54Z" transform="translate(0.01)" fill="#1b2841"/><path d="M304.5,96.86q-6.62,0-10.32-3.6t-3.7-10.12q0-7.08,4.61-10.74t13.37-3.83l9.81-.17V66.09q0-4.47-1.56-6.64t-5.09-2.16c-2.19,0-3.8.49-4.83,1.49a8,8,0,0,0-1.91,4.95l-12.34-.59q2.32-13.51,19.58-13.52,8.63,0,13.31,4.26T330.1,66V82.55q0,3.83.86,5.28a3.1,3.1,0,0,0,2.89,1.46,13.28,13.28,0,0,0,2.61-.26v6.4c-1.46.37-2.71.64-3.75.82a21.84,21.84,0,0,1-3.83.28c-3,0-5.17-.73-6.59-2.19a10.43,10.43,0,0,1-2.55-6.44h-.25a17.57,17.57,0,0,1-6.23,6.71A16.7,16.7,0,0,1,304.5,96.86Zm13.77-21.93-6.06.08a20.33,20.33,0,0,0-5.86.89,5.54,5.54,0,0,0-2.63,2.27,7.88,7.88,0,0,0-.9,4A6.77,6.77,0,0,0,304.31,87a5.23,5.23,0,0,0,4,1.58,9.09,9.09,0,0,0,5.09-1.51A10.43,10.43,0,0,0,317,82.91a12.78,12.78,0,0,0,1.31-5.67Z" transform="translate(0.01)" fill="#1b2841"/><path d="M351.59,96.86q-6.6,0-10.31-3.6t-3.71-10.12q0-7.08,4.61-10.74t13.37-3.83l9.81-.17V66.09q0-4.47-1.56-6.64c-1-1.44-2.73-2.16-5.09-2.16-2.19,0-3.8.49-4.82,1.49s-1.66,2.65-1.92,4.95l-12.33-.59Q342,49.63,359.21,49.62q8.64,0,13.31,4.26T377.19,66V82.55q0,3.83.87,5.28a3.07,3.07,0,0,0,2.88,1.46,13.13,13.13,0,0,0,2.61-.26v6.4c-1.46.37-2.71.64-3.75.82a21.76,21.76,0,0,1-3.83.28q-4.46,0-6.59-2.19a10.49,10.49,0,0,1-2.55-6.44h-.25a17.49,17.49,0,0,1-6.23,6.71A16.7,16.7,0,0,1,351.59,96.86Zm13.77-21.93L359.3,75a20.24,20.24,0,0,0-5.85.89,5.56,5.56,0,0,0-2.64,2.27,7.88,7.88,0,0,0-.9,4A6.82,6.82,0,0,0,351.4,87a5.25,5.25,0,0,0,4,1.58,9.12,9.12,0,0,0,5.1-1.51,10.51,10.51,0,0,0,3.58-4.19,12.77,12.77,0,0,0,1.3-5.67Z" transform="translate(0.01)" fill="#1b2841"/><path d="M400,73.66V96H388.16V61.16q0-3.75-.1-6.25t-.24-4.44h11.29a16.76,16.76,0,0,1,.17,1.68c.05.87.11,1.85.17,2.93s.1,2.09.14,3.05.07,1.64.07,2.06h.16a33,33,0,0,1,3.08-6.78,8.45,8.45,0,0,1,3.2-2.9,10.26,10.26,0,0,1,4.63-.93,8.92,8.92,0,0,1,3.66.63v9.9a23.4,23.4,0,0,0-5.05-.63,7.88,7.88,0,0,0-6.88,3.57Q400,66.63,400,73.66Z" transform="translate(0.01)" fill="#1b2841"/><path d="M129.09,87.4" transform="translate(0.01)" fill="#1b2841"/><path d="M135.81,83.15" transform="translate(0.01)" fill="none" fill-rule="evenodd"/><path d="M-32,83.46" transform="translate(0.01)" fill="#1b2841"/><path d="M100.09,87.4" transform="translate(0.01)" fill="#1b2841"/><path d="M86,87" transform="translate(0.01)" fill="none" fill-rule="evenodd"/><path d="M-2,55.72" transform="translate(0.01)" fill="#8ebb2d"/><g clip-path="url(#a)"><rect x="71.05" y="93.29" width="40.42" height="42.01" fill="#1b2841"/></g><g clip-path="url(#b)"><rect x="93.03" y="71.31" width="42.02" height="40.42" fill="#1b2841"/></g><g clip-path="url(#c)"><rect y="71.31" width="42.01" height="40.42" fill="#1b2841"/></g><g clip-path="url(#d)"><rect x="23.58" y="93.29" width="40.42" height="42.01" fill="#1b2841"/></g><path d="M33.23,64.26h-30a3,3,0,0,1-2.31-1,3,3,0,0,1-.79-2.4A67.42,67.42,0,0,1,3.66,45,63.05,63.05,0,0,1,120,45,64,64,0,0,0,59.17.83c-.86,0-1.72,0-2.58.05A69.06,69.06,0,0,1,67.51,0a67.79,67.79,0,0,1,67.43,60.83,3,3,0,0,1-.79,2.4,3,3,0,0,1-2.31,1h-30a3.09,3.09,0,0,1-3.06-2.53,31.66,31.66,0,0,0-.86-3.42c-9.3-37.5-58.39-38.17-68.78,0a33.73,33.73,0,0,1,45-21.63,31.42,31.42,0,0,0-6.61-.7A31.81,31.81,0,0,0,36.29,61.73a3.09,3.09,0,0,1-3.06,2.53" transform="translate(0.01)" fill="#8ebb2d" fill-rule="evenodd"/><g clip-path="url(#e)"><rect width="135.05" height="64.26" fill="#8ebb2d"/></g></svg>